<mxfile host="app.diagrams.net" modified="2021-06-26T07:19:16.089Z" agent="5.0 (Windows NT 10.0; Win64; x64) AppleWebKit/537.36 (KHTML, like Gecko) Chrome/91.0.4472.101 Safari/537.36 Edg/91.0.864.48" etag="r4tLGWmgmMgPLawXtbsE" version="14.8.1" type="github">
  <diagram id="C5RBs43oDa-KdzZeNtuy" name="Page-1">
    <mxGraphModel dx="1422" dy="1882" grid="1" gridSize="10" guides="1" tooltips="1" connect="1" arrows="1" fold="1" page="1" pageScale="1" pageWidth="827" pageHeight="1169" math="0" shadow="0">
      <root>
        <mxCell id="WIyWlLk6GJQsqaUBKTNV-0" />
        <mxCell id="WIyWlLk6GJQsqaUBKTNV-1" parent="WIyWlLk6GJQsqaUBKTNV-0" />
        <mxCell id="fFVUwz87gNjQ-5RxR4vc-0" value="data" style="rounded=1;whiteSpace=wrap;html=1;" vertex="1" parent="WIyWlLk6GJQsqaUBKTNV-1">
          <mxGeometry x="10" y="300" width="70" height="40" as="geometry" />
        </mxCell>
        <mxCell id="fFVUwz87gNjQ-5RxR4vc-2" value="&lt;span style=&quot;white-space: pre&quot;&gt;O&lt;/span&gt;bserver" style="rounded=1;whiteSpace=wrap;html=1;arcSize=16;fillColor=#dae8fc;strokeColor=#6c8ebf;" vertex="1" parent="WIyWlLk6GJQsqaUBKTNV-1">
          <mxGeometry x="130" y="295" width="70" height="55" as="geometry" />
        </mxCell>
        <mxCell id="fFVUwz87gNjQ-5RxR4vc-5" value="" style="endArrow=classic;html=1;" edge="1" parent="WIyWlLk6GJQsqaUBKTNV-1">
          <mxGeometry width="50" height="50" relative="1" as="geometry">
            <mxPoint x="80" y="319.5" as="sourcePoint" />
            <mxPoint x="130" y="320" as="targetPoint" />
          </mxGeometry>
        </mxCell>
        <mxCell id="fFVUwz87gNjQ-5RxR4vc-9" value="" style="endArrow=classic;html=1;" edge="1" parent="WIyWlLk6GJQsqaUBKTNV-1">
          <mxGeometry width="50" height="50" relative="1" as="geometry">
            <mxPoint x="200" y="322" as="sourcePoint" />
            <mxPoint x="250" y="322.5" as="targetPoint" />
          </mxGeometry>
        </mxCell>
        <object label="data" id="fFVUwz87gNjQ-5RxR4vc-10">
          <mxCell style="rounded=1;whiteSpace=wrap;html=1;fillColor=#f8cecc;strokeColor=#b85450;" vertex="1" parent="WIyWlLk6GJQsqaUBKTNV-1">
            <mxGeometry x="250" y="273.75" width="140" height="92.5" as="geometry" />
          </mxCell>
        </object>
        <mxCell id="fFVUwz87gNjQ-5RxR4vc-27" style="edgeStyle=orthogonalEdgeStyle;rounded=0;orthogonalLoop=1;jettySize=auto;html=1;" edge="1" parent="WIyWlLk6GJQsqaUBKTNV-1" source="fFVUwz87gNjQ-5RxR4vc-11">
          <mxGeometry relative="1" as="geometry">
            <mxPoint x="520" y="260" as="targetPoint" />
            <Array as="points">
              <mxPoint x="320" y="260" />
              <mxPoint x="520" y="260" />
            </Array>
          </mxGeometry>
        </mxCell>
        <mxCell id="fFVUwz87gNjQ-5RxR4vc-11" value="getter" style="rounded=0;whiteSpace=wrap;html=1;" vertex="1" parent="WIyWlLk6GJQsqaUBKTNV-1">
          <mxGeometry x="290" y="280" width="60" height="30" as="geometry" />
        </mxCell>
        <mxCell id="fFVUwz87gNjQ-5RxR4vc-20" style="edgeStyle=orthogonalEdgeStyle;rounded=0;orthogonalLoop=1;jettySize=auto;html=1;" edge="1" parent="WIyWlLk6GJQsqaUBKTNV-1" source="fFVUwz87gNjQ-5RxR4vc-12">
          <mxGeometry relative="1" as="geometry">
            <mxPoint x="400" y="345" as="targetPoint" />
          </mxGeometry>
        </mxCell>
        <mxCell id="fFVUwz87gNjQ-5RxR4vc-12" value="setter" style="rounded=0;whiteSpace=wrap;html=1;" vertex="1" parent="WIyWlLk6GJQsqaUBKTNV-1">
          <mxGeometry x="290" y="330" width="60" height="30" as="geometry" />
        </mxCell>
        <mxCell id="fFVUwz87gNjQ-5RxR4vc-23" style="edgeStyle=orthogonalEdgeStyle;rounded=0;orthogonalLoop=1;jettySize=auto;html=1;entryX=0;entryY=0.5;entryDx=0;entryDy=0;" edge="1" parent="WIyWlLk6GJQsqaUBKTNV-1" source="fFVUwz87gNjQ-5RxR4vc-15" target="fFVUwz87gNjQ-5RxR4vc-22">
          <mxGeometry relative="1" as="geometry" />
        </mxCell>
        <mxCell id="fFVUwz87gNjQ-5RxR4vc-15" value="Dep" style="rounded=1;whiteSpace=wrap;html=1;fillColor=#d5e8d4;strokeColor=#82b366;" vertex="1" parent="WIyWlLk6GJQsqaUBKTNV-1">
          <mxGeometry x="260" y="440" width="120" height="60" as="geometry" />
        </mxCell>
        <mxCell id="fFVUwz87gNjQ-5RxR4vc-16" value="" style="endArrow=classic;html=1;entryX=0.5;entryY=0;entryDx=0;entryDy=0;" edge="1" parent="WIyWlLk6GJQsqaUBKTNV-1" target="fFVUwz87gNjQ-5RxR4vc-15">
          <mxGeometry width="50" height="50" relative="1" as="geometry">
            <mxPoint x="320" y="370" as="sourcePoint" />
            <mxPoint x="440" y="340" as="targetPoint" />
          </mxGeometry>
        </mxCell>
        <mxCell id="fFVUwz87gNjQ-5RxR4vc-19" style="edgeStyle=orthogonalEdgeStyle;rounded=0;orthogonalLoop=1;jettySize=auto;html=1;exitX=0.5;exitY=1;exitDx=0;exitDy=0;exitPerimeter=0;" edge="1" parent="WIyWlLk6GJQsqaUBKTNV-1" source="fFVUwz87gNjQ-5RxR4vc-21">
          <mxGeometry relative="1" as="geometry">
            <mxPoint x="380" y="460" as="targetPoint" />
            <mxPoint x="430" y="380" as="sourcePoint" />
            <Array as="points">
              <mxPoint x="430" y="383" />
              <mxPoint x="400" y="383" />
              <mxPoint x="400" y="460" />
            </Array>
          </mxGeometry>
        </mxCell>
        <mxCell id="fFVUwz87gNjQ-5RxR4vc-26" value="" style="edgeStyle=orthogonalEdgeStyle;rounded=0;orthogonalLoop=1;jettySize=auto;html=1;" edge="1" parent="WIyWlLk6GJQsqaUBKTNV-1" source="fFVUwz87gNjQ-5RxR4vc-17" target="fFVUwz87gNjQ-5RxR4vc-21">
          <mxGeometry relative="1" as="geometry" />
        </mxCell>
        <mxCell id="fFVUwz87gNjQ-5RxR4vc-17" value="收集依赖" style="text;html=1;resizable=0;autosize=1;align=center;verticalAlign=middle;points=[];fillColor=none;strokeColor=none;rounded=0;" vertex="1" parent="WIyWlLk6GJQsqaUBKTNV-1">
          <mxGeometry x="400" y="285" width="60" height="20" as="geometry" />
        </mxCell>
        <mxCell id="fFVUwz87gNjQ-5RxR4vc-18" value="" style="endArrow=classic;html=1;" edge="1" parent="WIyWlLk6GJQsqaUBKTNV-1" target="fFVUwz87gNjQ-5RxR4vc-17">
          <mxGeometry width="50" height="50" relative="1" as="geometry">
            <mxPoint x="350" y="295" as="sourcePoint" />
            <mxPoint x="400" y="245" as="targetPoint" />
          </mxGeometry>
        </mxCell>
        <mxCell id="fFVUwz87gNjQ-5RxR4vc-21" value="通知依赖" style="text;html=1;align=center;verticalAlign=middle;resizable=0;points=[];autosize=1;strokeColor=none;" vertex="1" parent="WIyWlLk6GJQsqaUBKTNV-1">
          <mxGeometry x="400" y="335" width="60" height="20" as="geometry" />
        </mxCell>
        <mxCell id="fFVUwz87gNjQ-5RxR4vc-28" style="edgeStyle=orthogonalEdgeStyle;rounded=0;orthogonalLoop=1;jettySize=auto;html=1;entryX=0.5;entryY=1;entryDx=0;entryDy=0;" edge="1" parent="WIyWlLk6GJQsqaUBKTNV-1" source="fFVUwz87gNjQ-5RxR4vc-22" target="fFVUwz87gNjQ-5RxR4vc-25">
          <mxGeometry relative="1" as="geometry" />
        </mxCell>
        <mxCell id="fFVUwz87gNjQ-5RxR4vc-22" value="Watcher" style="rounded=1;whiteSpace=wrap;html=1;fillColor=#fff2cc;strokeColor=#d6b656;" vertex="1" parent="WIyWlLk6GJQsqaUBKTNV-1">
          <mxGeometry x="520" y="440" width="120" height="60" as="geometry" />
        </mxCell>
        <mxCell id="fFVUwz87gNjQ-5RxR4vc-24" value="通知watcher" style="text;html=1;align=center;verticalAlign=middle;resizable=0;points=[];autosize=1;strokeColor=none;" vertex="1" parent="WIyWlLk6GJQsqaUBKTNV-1">
          <mxGeometry x="410" y="440" width="80" height="20" as="geometry" />
        </mxCell>
        <mxCell id="fFVUwz87gNjQ-5RxR4vc-30" style="edgeStyle=orthogonalEdgeStyle;rounded=0;orthogonalLoop=1;jettySize=auto;html=1;" edge="1" parent="WIyWlLk6GJQsqaUBKTNV-1" source="fFVUwz87gNjQ-5RxR4vc-25">
          <mxGeometry relative="1" as="geometry">
            <mxPoint x="580" y="190" as="targetPoint" />
          </mxGeometry>
        </mxCell>
        <mxCell id="fFVUwz87gNjQ-5RxR4vc-25" value="Component render Function" style="rounded=1;whiteSpace=wrap;html=1;" vertex="1" parent="WIyWlLk6GJQsqaUBKTNV-1">
          <mxGeometry x="520" y="225" width="120" height="75" as="geometry" />
        </mxCell>
        <mxCell id="fFVUwz87gNjQ-5RxR4vc-29" value="通知组件更新" style="text;html=1;align=center;verticalAlign=middle;resizable=0;points=[];autosize=1;strokeColor=none;" vertex="1" parent="WIyWlLk6GJQsqaUBKTNV-1">
          <mxGeometry x="590" y="350" width="90" height="20" as="geometry" />
        </mxCell>
        <mxCell id="fFVUwz87gNjQ-5RxR4vc-31" value="ast语法树" style="rounded=1;whiteSpace=wrap;html=1;" vertex="1" parent="WIyWlLk6GJQsqaUBKTNV-1">
          <mxGeometry x="160" y="120" width="70" height="40" as="geometry" />
        </mxCell>
        <mxCell id="fFVUwz87gNjQ-5RxR4vc-32" value="render" style="text;html=1;align=center;verticalAlign=middle;resizable=0;points=[];autosize=1;strokeColor=none;" vertex="1" parent="WIyWlLk6GJQsqaUBKTNV-1">
          <mxGeometry x="500" y="200" width="50" height="20" as="geometry" />
        </mxCell>
        <mxCell id="fFVUwz87gNjQ-5RxR4vc-34" value="" style="edgeStyle=orthogonalEdgeStyle;rounded=0;orthogonalLoop=1;jettySize=auto;html=1;" edge="1" parent="WIyWlLk6GJQsqaUBKTNV-1" source="fFVUwz87gNjQ-5RxR4vc-33" target="fFVUwz87gNjQ-5RxR4vc-31">
          <mxGeometry relative="1" as="geometry" />
        </mxCell>
        <mxCell id="fFVUwz87gNjQ-5RxR4vc-33" value="html模板" style="rounded=1;whiteSpace=wrap;html=1;" vertex="1" parent="WIyWlLk6GJQsqaUBKTNV-1">
          <mxGeometry x="30" y="120" width="100" height="40" as="geometry" />
        </mxCell>
        <mxCell id="fFVUwz87gNjQ-5RxR4vc-44" value="" style="edgeStyle=orthogonalEdgeStyle;rounded=0;orthogonalLoop=1;jettySize=auto;html=1;" edge="1" parent="WIyWlLk6GJQsqaUBKTNV-1" source="fFVUwz87gNjQ-5RxR4vc-35">
          <mxGeometry relative="1" as="geometry">
            <mxPoint x="400" y="140" as="targetPoint" />
          </mxGeometry>
        </mxCell>
        <mxCell id="fFVUwz87gNjQ-5RxR4vc-35" value="diff算法" style="rounded=1;whiteSpace=wrap;html=1;" vertex="1" parent="WIyWlLk6GJQsqaUBKTNV-1">
          <mxGeometry x="260" y="120" width="80" height="40" as="geometry" />
        </mxCell>
        <mxCell id="fFVUwz87gNjQ-5RxR4vc-38" value="" style="endArrow=classic;html=1;entryX=0;entryY=0.5;entryDx=0;entryDy=0;" edge="1" parent="WIyWlLk6GJQsqaUBKTNV-1" target="fFVUwz87gNjQ-5RxR4vc-35">
          <mxGeometry width="50" height="50" relative="1" as="geometry">
            <mxPoint x="230" y="140" as="sourcePoint" />
            <mxPoint x="280" y="90" as="targetPoint" />
          </mxGeometry>
        </mxCell>
        <mxCell id="fFVUwz87gNjQ-5RxR4vc-40" value="" style="endArrow=classic;html=1;" edge="1" parent="WIyWlLk6GJQsqaUBKTNV-1">
          <mxGeometry width="50" height="50" relative="1" as="geometry">
            <mxPoint x="330" y="120" as="sourcePoint" />
            <mxPoint x="360" y="90" as="targetPoint" />
          </mxGeometry>
        </mxCell>
        <mxCell id="fFVUwz87gNjQ-5RxR4vc-41" value="第一次编译直接替换模板" style="text;html=1;align=center;verticalAlign=middle;resizable=0;points=[];autosize=1;strokeColor=none;" vertex="1" parent="WIyWlLk6GJQsqaUBKTNV-1">
          <mxGeometry x="310" y="60" width="150" height="20" as="geometry" />
        </mxCell>
        <mxCell id="fFVUwz87gNjQ-5RxR4vc-47" value="静态属性节点标记tag" style="text;html=1;align=center;verticalAlign=middle;resizable=0;points=[];autosize=1;strokeColor=none;" vertex="1" parent="WIyWlLk6GJQsqaUBKTNV-1">
          <mxGeometry x="320" y="170" width="130" height="20" as="geometry" />
        </mxCell>
        <mxCell id="fFVUwz87gNjQ-5RxR4vc-48" value="核心" style="text;html=1;align=center;verticalAlign=middle;resizable=0;points=[];autosize=1;strokeColor=none;" vertex="1" parent="WIyWlLk6GJQsqaUBKTNV-1">
          <mxGeometry x="400" y="130" width="40" height="20" as="geometry" />
        </mxCell>
        <mxCell id="fFVUwz87gNjQ-5RxR4vc-54" value="" style="edgeStyle=orthogonalEdgeStyle;rounded=0;orthogonalLoop=1;jettySize=auto;html=1;" edge="1" parent="WIyWlLk6GJQsqaUBKTNV-1" source="fFVUwz87gNjQ-5RxR4vc-50" target="fFVUwz87gNjQ-5RxR4vc-53">
          <mxGeometry relative="1" as="geometry" />
        </mxCell>
        <mxCell id="fFVUwz87gNjQ-5RxR4vc-50" value="双指针比较" style="rounded=1;whiteSpace=wrap;html=1;" vertex="1" parent="WIyWlLk6GJQsqaUBKTNV-1">
          <mxGeometry x="440" y="120" width="80" height="40" as="geometry" />
        </mxCell>
        <mxCell id="fFVUwz87gNjQ-5RxR4vc-56" value="" style="edgeStyle=orthogonalEdgeStyle;rounded=0;orthogonalLoop=1;jettySize=auto;html=1;" edge="1" parent="WIyWlLk6GJQsqaUBKTNV-1" source="fFVUwz87gNjQ-5RxR4vc-53" target="fFVUwz87gNjQ-5RxR4vc-55">
          <mxGeometry relative="1" as="geometry" />
        </mxCell>
        <mxCell id="fFVUwz87gNjQ-5RxR4vc-53" value="头和头相等&lt;br&gt;尾和尾相等比较&lt;br&gt;头和尾相等比较" style="text;html=1;align=center;verticalAlign=middle;resizable=0;points=[];autosize=1;strokeColor=none;" vertex="1" parent="WIyWlLk6GJQsqaUBKTNV-1">
          <mxGeometry x="540" y="115" width="100" height="50" as="geometry" />
        </mxCell>
        <mxCell id="fFVUwz87gNjQ-5RxR4vc-55" value="递归传入新的子节点比较" style="whiteSpace=wrap;html=1;" vertex="1" parent="WIyWlLk6GJQsqaUBKTNV-1">
          <mxGeometry x="660" y="115" width="60" height="50" as="geometry" />
        </mxCell>
        <mxCell id="fFVUwz87gNjQ-5RxR4vc-57" value="模板编译核心" style="swimlane;fillColor=#e1d5e7;strokeColor=#9673a6;" vertex="1" parent="WIyWlLk6GJQsqaUBKTNV-1">
          <mxGeometry x="30" y="-10" width="750" height="200" as="geometry" />
        </mxCell>
      </root>
    </mxGraphModel>
  </diagram>
</mxfile>
